<svg width="173" height="171" viewBox="0 0 173 171" fill="none" xmlns="http://www.w3.org/2000/svg">
<g clip-path="url(#clip0_206_15)">
<rect width="173" height="171" fill="white"/>
<path d="M33.88 133.216C33.4533 133.216 33.24 132.875 33.24 132.192C33.24 131.595 33.4533 130.869 33.88 130.016C34.3067 129.163 34.8613 128.48 35.544 127.968C36.2267 127.541 36.952 127.072 37.72 126.56C38.4027 126.133 39.0853 125.749 39.768 125.408C39.6827 125.237 39.64 124.939 39.64 124.512C39.64 123.829 39.8533 123.488 40.28 123.488C40.536 123.488 40.92 123.787 41.432 124.384C48.088 120.715 54.5733 118.027 60.888 116.32V115.936C60.888 113.547 60.248 111.328 58.968 109.28C57.7733 107.232 56.2373 105.141 54.36 103.008C52.4827 100.875 50.5627 98.528 48.6 95.968C46.7227 93.408 45.016 90.5067 43.48 87.264C42.0293 83.936 41.0907 80.0533 40.664 75.616C40.5787 75.104 40.536 74.592 40.536 74.08C40.536 73.568 40.536 73.056 40.536 72.544C40.536 67.0827 41.7733 62.1333 44.248 57.696C46.7227 53.2587 49.9227 49.4613 53.848 46.304C57.8587 43.0613 62.168 40.544 66.776 38.752C70.4453 37.3013 74.6267 36.576 79.32 36.576C81.0267 36.576 82.648 36.704 84.184 36.96C88.7067 37.8133 91.864 39.3067 93.656 41.44C95.448 43.5733 96.344 45.7067 96.344 47.84C96.344 49.4613 95.9173 50.912 95.064 52.192C94.2107 53.472 93.6133 54.112 93.272 54.112C93.016 54.112 92.888 53.9413 92.888 53.6C92.888 53.4293 92.9307 53.1733 93.016 52.832C93.1867 52.4053 93.3147 51.9787 93.4 51.552C93.656 50.8693 93.8267 50.272 93.912 49.76C93.9973 49.248 94.04 48.736 94.04 48.224C94.04 45.4933 92.76 43.488 90.2 42.208C87.7253 40.8427 85.08 40.16 82.264 40.16C81.9227 40.16 81.5387 40.16 81.112 40.16C80.6853 40.16 80.2587 40.2027 79.832 40.288C74.456 41.056 69.3787 43.0187 64.6 46.176C59.8213 49.3333 55.768 53.472 52.44 58.592C49.1973 63.6267 47.064 69.4293 46.04 76C45.9547 76.5973 45.8693 77.1947 45.784 77.792C45.784 78.3893 45.784 78.944 45.784 79.456C45.784 83.4667 46.6373 87.136 48.344 90.464C50.0507 93.7067 52.056 96.736 54.36 99.552C56.7493 102.368 59.0107 105.099 61.144 107.744C63.2773 110.304 64.728 112.864 65.496 115.424C67.2027 115.083 68.8667 114.869 70.488 114.784C72.1093 114.699 73.688 114.699 75.224 114.784C76.4187 114.955 77.016 115.296 77.016 115.808C77.016 116.32 76.1627 116.576 74.456 116.576C73.2613 116.576 71.9387 116.661 70.488 116.832C69.0373 116.917 67.5013 117.173 65.88 117.6C65.9653 117.856 66.008 118.112 66.008 118.368C66.008 118.624 66.008 118.837 66.008 119.008C66.008 119.861 65.88 120.757 65.624 121.696C64.5147 125.109 62.5093 127.627 59.608 129.248C56.7067 130.869 53.7627 131.68 50.776 131.68C47.8747 131.68 45.4427 131.083 43.48 129.888C42.7973 129.547 42.1573 129.077 41.56 128.48C40.4507 129.077 39.3413 129.76 38.232 130.528C37.0373 131.296 35.8853 132.064 34.776 132.832C34.4347 133.088 34.136 133.216 33.88 133.216ZM49.624 129.376C52.0987 129.376 54.5307 128.565 56.92 126.944C59.3093 125.408 60.632 122.805 60.888 119.136C55.256 121.099 49.4533 123.829 43.48 127.328C44.8453 128.693 46.8933 129.376 49.624 129.376ZM76.0567 124H71.6433V108.373H76.0567V114.56H79.4833V108.373H83.8967V124H79.4833V117.627H76.0567V124ZM90.1868 117.96C90.1868 119.436 90.2979 120.462 90.5201 121.04C90.7512 121.618 91.1512 121.907 91.7201 121.907C92.1379 121.907 92.4534 121.804 92.6668 121.6C92.8801 121.387 93.0401 120.956 93.1468 120.307C93.2623 119.649 93.3201 118.667 93.3201 117.36V114.147C93.3201 112.876 93.1957 111.929 92.9468 111.307C92.6979 110.684 92.289 110.373 91.7201 110.373C91.1512 110.373 90.7512 110.68 90.5201 111.293C90.2979 111.898 90.1868 113.004 90.1868 114.613V117.96ZM91.4401 124.28C90.7023 124.28 90.0357 124.213 89.4401 124.08C88.8534 123.947 88.3468 123.76 87.9201 123.52C87.4934 123.28 87.1201 122.973 86.8001 122.6C86.489 122.227 86.2357 121.827 86.0401 121.4C85.8534 120.973 85.7023 120.476 85.5868 119.907C85.4712 119.329 85.3912 118.756 85.3468 118.187C85.3023 117.609 85.2801 116.96 85.2801 116.24C85.2801 115.173 85.3334 114.244 85.4401 113.453C85.5557 112.662 85.7645 111.92 86.0668 111.227C86.369 110.524 86.769 109.956 87.2668 109.52C87.7734 109.084 88.4223 108.742 89.2134 108.493C90.0134 108.244 90.9557 108.12 92.0401 108.12C92.7868 108.12 93.4579 108.191 94.0534 108.333C94.649 108.467 95.1601 108.653 95.5868 108.893C96.0134 109.133 96.3823 109.444 96.6934 109.827C97.0134 110.209 97.2668 110.618 97.4534 111.053C97.649 111.48 97.8045 111.982 97.9201 112.56C98.0357 113.138 98.1157 113.711 98.1601 114.28C98.2045 114.849 98.2268 115.493 98.2268 116.213C98.2268 117.28 98.169 118.209 98.0534 119C97.9379 119.791 97.729 120.533 97.4268 121.227C97.1245 121.911 96.7201 122.471 96.2134 122.907C95.7068 123.333 95.0534 123.671 94.2534 123.92C93.4623 124.16 92.5245 124.28 91.4401 124.28ZM104.025 124H99.6121V108.373H101.372C101.843 108.373 102.554 108.356 103.505 108.32C104.457 108.276 105.239 108.253 105.852 108.253C107.577 108.253 108.883 108.711 109.772 109.627C110.661 110.542 111.105 111.916 111.105 113.747C111.105 114.849 110.959 115.853 110.665 116.76C110.381 117.658 109.994 118.396 109.505 118.973C109.017 119.551 108.461 119.996 107.839 120.307C107.217 120.618 106.559 120.773 105.865 120.773C105.777 120.773 105.683 120.773 105.585 120.773C105.497 120.773 105.412 120.773 105.332 120.773C105.261 120.764 105.172 120.76 105.065 120.76C104.968 120.751 104.888 120.747 104.825 120.747C104.772 120.738 104.692 120.733 104.585 120.733C104.488 120.724 104.421 120.72 104.385 120.72C104.35 120.72 104.283 120.716 104.185 120.707C104.088 120.698 104.034 120.693 104.025 120.693V124ZM106.732 113.16C106.732 112.502 106.554 111.969 106.199 111.56C105.843 111.151 105.332 110.947 104.665 110.947H104.025V117.88H104.519C105.221 117.88 105.763 117.644 106.145 117.173C106.537 116.702 106.732 116.022 106.732 115.133V113.16Z" fill="black"/>
<path d="M69.4335 63.6084C70.4803 63.7334 71.3866 63.8271 72.1522 63.8896C72.9178 63.9365 73.5507 63.9756 74.0507 64.0068C74.6288 64.0381 75.1132 64.0459 75.5038 64.0303C75.91 64.0146 76.4647 63.9756 77.1678 63.9131C77.7616 63.8662 78.5428 63.8037 79.5116 63.7256C80.4803 63.6318 81.6913 63.5068 83.1444 63.3506C83.16 63.71 83.1678 64.0615 83.1678 64.4053C83.1835 64.7334 83.1991 65.0225 83.2147 65.2725C83.2303 65.5693 83.2382 65.8428 83.2382 66.0928C83.2382 66.3584 83.2225 66.6943 83.1913 67.1006C83.16 67.4443 83.1053 67.8818 83.0272 68.4131C82.9647 68.9287 82.8632 69.5459 82.7225 70.2646C82.5038 69.4209 82.2928 68.7412 82.0897 68.2256C81.8866 67.6943 81.6991 67.2725 81.5272 66.96C81.3397 66.6006 81.1522 66.3271 80.9647 66.1396C80.7616 65.999 80.5194 65.8818 80.2382 65.7881C79.9882 65.71 79.6678 65.6475 79.2772 65.6006C78.9022 65.5537 78.4569 65.5615 77.9413 65.624C77.8632 67.6865 77.8085 69.3584 77.7772 70.6396C77.746 71.9209 77.7225 72.9209 77.7069 73.6396C77.6913 74.499 77.6835 75.1162 77.6835 75.4912C77.6991 76.0225 77.785 76.5459 77.9413 77.0615C78.0663 77.499 78.2694 77.9521 78.5507 78.4209C78.8319 78.8896 79.2382 79.3037 79.7694 79.6631H76.91C76.6444 79.6631 76.3163 79.6787 75.9257 79.71C75.5975 79.7412 75.1757 79.7725 74.66 79.8037C74.16 79.835 73.5741 79.8896 72.9022 79.9678C73.1366 79.5615 73.3241 79.1943 73.4647 78.8662C73.6053 78.5381 73.7147 78.2568 73.7928 78.0225C73.8866 77.7412 73.9569 77.4912 74.0038 77.2725C74.0194 76.96 74.0585 76.3271 74.121 75.374C74.1366 74.9834 74.1522 74.499 74.1678 73.9209C74.1991 73.3428 74.2303 72.6553 74.2616 71.8584C74.3085 71.0615 74.3475 70.1475 74.3788 69.1162C74.4257 68.0693 74.4725 66.8896 74.5194 65.5771C74.2382 65.499 73.9725 65.5068 73.7225 65.6006C73.4725 65.6787 73.2538 65.7803 73.0663 65.9053C72.8475 66.0615 72.6366 66.249 72.4335 66.4678C72.2303 66.7334 72.0038 67.0771 71.7538 67.499C71.535 67.8584 71.285 68.335 71.0038 68.9287C70.7225 69.5068 70.4022 70.2256 70.0428 71.085C69.9647 70.1787 69.91 69.4365 69.8788 68.8584C69.8475 68.2646 69.8241 67.8037 69.8085 67.4756C69.7928 67.085 69.785 66.7959 69.785 66.6084C69.785 66.4365 69.7694 66.21 69.7382 65.9287C69.7069 65.6943 69.6678 65.3896 69.621 65.0146C69.5741 64.624 69.5116 64.1553 69.4335 63.6084ZM81.8085 64.0771C82.3553 64.1396 82.8163 64.1865 83.1913 64.2178C83.5663 64.2334 83.8632 64.249 84.0819 64.2646C84.3475 64.2803 84.5585 64.2881 84.7147 64.2881C84.9803 64.2881 85.285 64.2803 85.6288 64.2646C85.9257 64.249 86.2694 64.2256 86.66 64.1943C87.0663 64.1475 87.5038 64.0771 87.9725 63.9834C87.7538 64.2178 87.5741 64.4443 87.4335 64.6631C87.2928 64.8662 87.1835 65.0537 87.1053 65.2256C87.0116 65.4131 86.9335 65.585 86.871 65.7412C86.8085 65.9443 86.7382 66.2568 86.66 66.6787C86.5819 67.0381 86.496 67.5459 86.4022 68.2021C86.3241 68.8584 86.2225 69.7178 86.0975 70.7803C86.6288 70.7959 87.0897 70.8037 87.4803 70.8037C87.871 70.7881 88.1991 70.7803 88.4647 70.7803H89.2382C89.4569 70.7646 89.7069 70.749 89.9882 70.7334C90.4569 70.7178 91.1678 70.6709 92.121 70.5928C92.1991 69.874 92.2382 69.2568 92.2382 68.7412C92.2538 68.21 92.246 67.7646 92.2147 67.4053C92.1835 66.999 92.1366 66.6553 92.0741 66.374C92.0272 66.2178 91.9569 66.0303 91.8632 65.8115C91.785 65.624 91.6757 65.3975 91.535 65.1318C91.41 64.8506 91.2382 64.5146 91.0194 64.124C91.4257 64.1865 91.785 64.2334 92.0975 64.2646C92.4257 64.2803 92.6991 64.2959 92.9178 64.3115C93.1678 64.3271 93.3788 64.335 93.5507 64.335C93.7225 64.335 93.9491 64.3271 94.2303 64.3115C94.4647 64.2959 94.7538 64.2881 95.0975 64.2881C95.4413 64.2725 95.8632 64.249 96.3632 64.2178C96.2382 64.4365 96.1288 64.6631 96.035 64.8975C95.9413 65.1318 95.8632 65.3428 95.8007 65.5303C95.7382 65.749 95.6757 65.9678 95.6132 66.1865C95.535 66.5146 95.4647 66.9912 95.4022 67.6162C95.3553 68.2412 95.3085 68.9365 95.2616 69.7021C95.2303 70.4678 95.1991 71.2646 95.1678 72.0928C95.1522 72.9209 95.1366 73.7021 95.121 74.4365C95.121 75.1709 95.1288 75.8271 95.1444 76.4053C95.16 76.9678 95.1913 77.3662 95.2382 77.6006C95.285 77.8818 95.3632 78.1709 95.4725 78.4678C95.5663 78.7334 95.6913 79.0225 95.8475 79.335C96.0038 79.6318 96.2069 79.9131 96.4569 80.1787L90.8085 80.6006C91.0428 80.3818 91.2303 80.1709 91.371 79.9678C91.5116 79.749 91.621 79.5615 91.6991 79.4053C91.7772 79.2334 91.8319 79.0693 91.8632 78.9131C91.8788 78.7256 91.9022 78.3975 91.9335 77.9287C91.9647 77.5381 91.996 76.9834 92.0272 76.2646C92.0585 75.5459 92.0897 74.5928 92.121 73.4053C91.9022 73.4053 91.6366 73.4131 91.3241 73.4287C91.0272 73.4287 90.746 73.4365 90.4803 73.4521C90.1678 73.4678 89.8397 73.4756 89.496 73.4756C89.1522 73.4912 88.7928 73.5068 88.4178 73.5225C88.1053 73.5537 87.7538 73.585 87.3632 73.6162C86.9882 73.6318 86.6132 73.6553 86.2382 73.6865C86.2069 74.3428 86.2069 74.9209 86.2382 75.4209C86.2694 75.9053 86.3163 76.3193 86.3788 76.6631C86.4413 77.0693 86.5194 77.4209 86.6132 77.7178C86.7069 77.999 86.8085 78.2803 86.9178 78.5615C87.0116 78.8115 87.121 79.0771 87.246 79.3584C87.3866 79.6396 87.5272 79.8896 87.6678 80.1084C87.371 80.0771 87.0975 80.0537 86.8475 80.0381C86.5975 80.0068 86.3788 79.9756 86.1913 79.9443C85.9725 79.9287 85.7616 79.9131 85.5585 79.8975C85.3553 79.8975 85.1132 79.8896 84.8319 79.874C84.5819 79.8584 84.2694 79.8506 83.8944 79.8506C83.5194 79.835 83.0819 79.8271 82.5819 79.8271C82.8788 79.5303 83.1132 79.2412 83.285 78.96C83.4725 78.6631 83.6053 78.3975 83.6835 78.1631C83.7772 77.8818 83.8397 77.624 83.871 77.3896C83.8866 77.1865 83.8944 76.8037 83.8944 76.2412C83.91 75.6787 83.91 75.0381 83.8944 74.3193C83.8944 73.585 83.8866 72.8193 83.871 72.0225C83.8553 71.21 83.8319 70.4521 83.8007 69.749C83.785 69.0459 83.7616 68.4443 83.7303 67.9443C83.7147 67.4287 83.6991 67.1084 83.6835 66.9834C83.6053 66.7021 83.4882 66.3975 83.3319 66.0693C83.1913 65.8037 83.0038 65.499 82.7694 65.1553C82.535 64.7959 82.2147 64.4365 81.8085 64.0771ZM95.7303 64.71C96.8241 64.7412 97.7303 64.7646 98.4491 64.7803C99.1835 64.7803 99.7772 64.7803 100.23 64.7803H101.473H108.457C108.488 65.0928 108.512 65.3975 108.527 65.6943C108.558 65.9756 108.574 66.2256 108.574 66.4443C108.574 66.71 108.566 66.9521 108.551 67.1709C108.535 67.3896 108.512 67.624 108.48 67.874C108.449 68.0928 108.418 68.3271 108.387 68.5771C108.355 68.8271 108.301 69.085 108.223 69.3506C108.004 68.5068 107.707 67.8662 107.332 67.4287C106.973 66.9912 106.605 66.6709 106.23 66.4678C105.793 66.2334 105.332 66.1084 104.848 66.0928C104.207 66.124 103.707 66.1787 103.348 66.2568C102.988 66.335 102.707 66.4443 102.504 66.585C102.301 66.7256 102.144 66.8896 102.035 67.0771C101.941 67.249 101.84 67.4443 101.73 67.6631C101.637 67.8506 101.551 68.1396 101.473 68.5303C101.394 68.8584 101.316 69.3037 101.238 69.8662C101.176 70.4287 101.105 71.1553 101.027 72.0459C101.449 71.9209 101.785 71.8037 102.035 71.6943C102.301 71.585 102.512 71.4912 102.668 71.4131C102.84 71.3193 102.965 71.2334 103.043 71.1553C103.105 71.0615 103.199 70.8896 103.324 70.6396C103.418 70.4209 103.543 70.124 103.699 69.749C103.871 69.374 104.074 68.8584 104.308 68.2021C104.34 68.9209 104.355 69.5225 104.355 70.0068C104.355 70.4756 104.363 70.8584 104.379 71.1553C104.379 71.499 104.387 71.7725 104.402 71.9756V72.8662C104.402 73.1943 104.402 73.6396 104.402 74.2021C104.418 74.749 104.441 75.4443 104.473 76.2881C104.285 75.71 104.113 75.2568 103.957 74.9287C103.816 74.585 103.691 74.3271 103.582 74.1553C103.457 73.9521 103.348 73.8115 103.254 73.7334C103.144 73.7021 102.996 73.6709 102.808 73.6396C102.637 73.624 102.418 73.6162 102.152 73.6162C101.902 73.6162 101.582 73.6553 101.191 73.7334C101.144 74.5928 101.137 75.2881 101.168 75.8193C101.215 76.335 101.277 76.7334 101.355 77.0146C101.433 77.3428 101.527 77.5771 101.637 77.7178C101.777 77.8584 102.058 77.9756 102.48 78.0693C102.902 78.1475 103.379 78.1787 103.91 78.1631C104.457 78.1318 105.012 78.0381 105.574 77.8818C106.137 77.7256 106.637 77.4678 107.074 77.1084C107.402 76.8115 107.754 76.4365 108.129 75.9834C108.441 75.5928 108.785 75.1006 109.16 74.5068C109.551 73.9131 109.933 73.1943 110.308 72.3506C110.246 73.0537 110.199 73.6396 110.168 74.1084C110.152 74.5615 110.129 74.9287 110.098 75.21C110.066 75.5381 110.043 75.7881 110.027 75.96C110.027 76.1475 110.004 76.4131 109.957 76.7568C109.926 77.0537 109.871 77.46 109.793 77.9756C109.73 78.4756 109.644 79.1162 109.535 79.8975C108.801 79.9131 108.105 79.9287 107.449 79.9443C106.793 79.9443 106.215 79.9521 105.715 79.9678C105.121 79.9834 104.574 79.999 104.074 80.0146C103.558 80.0146 102.988 80.0381 102.363 80.085C101.816 80.1162 101.168 80.1631 100.418 80.2256C99.6835 80.2881 98.871 80.374 97.9803 80.4834C98.0585 79.4209 98.1132 78.4209 98.1444 77.4834C98.1913 76.5303 98.2225 75.6943 98.2382 74.9756C98.2538 74.1318 98.2538 73.3506 98.2382 72.6318C98.3163 70.835 98.285 69.3818 98.1444 68.2725C98.0038 67.1631 97.8397 66.4521 97.6522 66.1396C97.5585 66.0303 97.4257 65.8975 97.2538 65.7412C97.1132 65.6162 96.9178 65.4678 96.6678 65.2959C96.4178 65.124 96.1053 64.9287 95.7303 64.71Z" fill="#110041"/>
<path d="M74.7422 98.2689H78.2622V100.589H73.1822C72.3022 99.7622 71.6356 98.7155 71.1822 97.4489C70.7289 96.1822 70.5022 94.8822 70.5022 93.5489C70.5022 92.2022 70.7556 90.9089 71.2622 89.6689C71.7689 88.4289 72.5222 87.4022 73.5222 86.5889H78.2622V88.9889H74.7422C74.3822 89.4022 74.0689 90.0689 73.8022 90.9889C73.5489 91.9089 73.4222 92.7889 73.4222 93.6289C73.4222 94.4689 73.5489 95.3489 73.8022 96.2689C74.0689 97.1889 74.3822 97.8555 74.7422 98.2689ZM79.7294 86.5889H85.0494C85.8894 86.8689 86.6027 87.3889 87.1894 88.1489C87.7894 88.8955 88.0894 89.8155 88.0894 90.9089C88.0894 92.6955 87.3827 94.0089 85.9694 94.8489L87.9894 100.589H85.1894L83.4894 95.4889H82.4294V100.589H79.7294V86.5889ZM82.4294 88.9889V93.2489H84.1494C84.3761 93.1955 84.6227 92.9689 84.8894 92.5689C85.1694 92.1555 85.3094 91.6755 85.3094 91.1289C85.3094 90.5822 85.1894 90.1022 84.9494 89.6889C84.7227 89.2755 84.4961 89.0422 84.2694 88.9889H82.4294ZM95.4941 100.589L95.0741 98.3689H91.9141L91.4941 100.589H88.7741L91.4741 86.5889H95.6141L98.1741 100.589H95.4941ZM93.4541 89.1889L92.6741 93.8489L92.2341 96.2289H94.7341L94.2741 93.8489L93.4941 89.1889H93.4541ZM99.3388 100.589V86.5889H106.639V88.9889H102.079V92.4889H106.039V94.8089H102.079V100.589H99.3388ZM110.056 88.9889H107.036V86.5889H115.796V88.9889H112.776V100.589H110.056V88.9889ZM116.956 100.589V86.5889H119.696V98.2689H123.856V100.589H116.956ZM128.536 100.589H125.616V95.9289L122.656 86.5889H125.376L126.616 90.8489L127.036 93.3089H127.116L127.536 90.8489L128.776 86.5889H131.496L128.536 95.9289V100.589Z" fill="#1C6863"/>
</g>
<defs>
<clipPath id="clip0_206_15">
<rect width="173" height="171" fill="white"/>
</clipPath>
</defs>
</svg>
